<mxfile host="app.diagrams.net" agent="Mozilla/5.0 (Windows NT 10.0; Win64; x64) AppleWebKit/537.36 (KHTML, like Gecko) Chrome/136.0.0.0 Safari/537.36" version="27.0.5">
  <diagram name="PÃ¡gina-1" id="UMzChkgotn7JvA_M7hdk">
    <mxGraphModel dx="1514" dy="1124" grid="0" gridSize="10" guides="1" tooltips="1" connect="1" arrows="1" fold="1" page="0" pageScale="1" pageWidth="827" pageHeight="1169" math="0" shadow="0">
      <root>
        <mxCell id="0" />
        <mxCell id="1" parent="0" />
        <mxCell id="MWKylUu2BTIcoXDb4IcX-1" value="abogado" style="shape=umlActor;verticalLabelPosition=bottom;verticalAlign=top;html=1;outlineConnect=0;" vertex="1" parent="1">
          <mxGeometry x="95" y="125" width="30" height="60" as="geometry" />
        </mxCell>
        <mxCell id="MWKylUu2BTIcoXDb4IcX-2" value="Crear Caso" style="ellipse;whiteSpace=wrap;html=1;" vertex="1" parent="1">
          <mxGeometry x="471" y="397" width="160" height="70" as="geometry" />
        </mxCell>
        <mxCell id="MWKylUu2BTIcoXDb4IcX-3" value="cliente" style="shape=umlActor;verticalLabelPosition=bottom;verticalAlign=top;html=1;outlineConnect=0;" vertex="1" parent="1">
          <mxGeometry x="639" y="267" width="30" height="60" as="geometry" />
        </mxCell>
        <mxCell id="MWKylUu2BTIcoXDb4IcX-4" value="Subir Documento" style="ellipse;whiteSpace=wrap;html=1;" vertex="1" parent="1">
          <mxGeometry x="285" y="-33" width="160" height="70" as="geometry" />
        </mxCell>
        <mxCell id="MWKylUu2BTIcoXDb4IcX-5" value="A&lt;span style=&quot;background-color: transparent; color: light-dark(rgb(0, 0, 0), rgb(255, 255, 255));&quot;&gt;gregar Notas&lt;/span&gt;" style="ellipse;whiteSpace=wrap;html=1;" vertex="1" parent="1">
          <mxGeometry x="285" y="83" width="160" height="70" as="geometry" />
        </mxCell>
        <mxCell id="MWKylUu2BTIcoXDb4IcX-6" value="Consultar Estado" style="ellipse;whiteSpace=wrap;html=1;" vertex="1" parent="1">
          <mxGeometry x="782" y="305" width="160" height="70" as="geometry" />
        </mxCell>
        <mxCell id="MWKylUu2BTIcoXDb4IcX-7" value="" style="endArrow=none;html=1;rounded=0;entryX=0;entryY=0.5;entryDx=0;entryDy=0;" edge="1" parent="1" source="MWKylUu2BTIcoXDb4IcX-3" target="MWKylUu2BTIcoXDb4IcX-6">
          <mxGeometry width="50" height="50" relative="1" as="geometry">
            <mxPoint x="125" y="285" as="sourcePoint" />
            <mxPoint x="874" y="494" as="targetPoint" />
          </mxGeometry>
        </mxCell>
        <mxCell id="MWKylUu2BTIcoXDb4IcX-8" value="" style="endArrow=none;html=1;rounded=0;entryX=0.5;entryY=0;entryDx=0;entryDy=0;" edge="1" parent="1" source="MWKylUu2BTIcoXDb4IcX-3" target="MWKylUu2BTIcoXDb4IcX-2">
          <mxGeometry width="50" height="50" relative="1" as="geometry">
            <mxPoint x="565" y="481" as="sourcePoint" />
            <mxPoint x="175" y="105" as="targetPoint" />
          </mxGeometry>
        </mxCell>
        <mxCell id="MWKylUu2BTIcoXDb4IcX-9" value="" style="endArrow=none;html=1;rounded=0;entryX=0;entryY=0.5;entryDx=0;entryDy=0;" edge="1" parent="1" source="MWKylUu2BTIcoXDb4IcX-1" target="MWKylUu2BTIcoXDb4IcX-4">
          <mxGeometry width="50" height="50" relative="1" as="geometry">
            <mxPoint x="125" y="155" as="sourcePoint" />
            <mxPoint x="225" y="175" as="targetPoint" />
          </mxGeometry>
        </mxCell>
        <mxCell id="MWKylUu2BTIcoXDb4IcX-10" value="Solicitar Audiencia" style="ellipse;whiteSpace=wrap;html=1;" vertex="1" parent="1">
          <mxGeometry x="285" y="327" width="160" height="70" as="geometry" />
        </mxCell>
        <mxCell id="MWKylUu2BTIcoXDb4IcX-11" value="" style="endArrow=none;html=1;rounded=0;entryX=0;entryY=0.5;entryDx=0;entryDy=0;" edge="1" parent="1" source="MWKylUu2BTIcoXDb4IcX-1" target="MWKylUu2BTIcoXDb4IcX-5">
          <mxGeometry width="50" height="50" relative="1" as="geometry">
            <mxPoint x="125" y="155" as="sourcePoint" />
            <mxPoint x="255" y="225" as="targetPoint" />
          </mxGeometry>
        </mxCell>
        <mxCell id="MWKylUu2BTIcoXDb4IcX-12" value="" style="endArrow=none;html=1;rounded=0;entryX=0;entryY=0.5;entryDx=0;entryDy=0;" edge="1" parent="1" source="MWKylUu2BTIcoXDb4IcX-1" target="MWKylUu2BTIcoXDb4IcX-10">
          <mxGeometry width="50" height="50" relative="1" as="geometry">
            <mxPoint x="185" y="405" as="sourcePoint" />
            <mxPoint x="235" y="355" as="targetPoint" />
          </mxGeometry>
        </mxCell>
        <mxCell id="MWKylUu2BTIcoXDb4IcX-13" value="Notificar Cliente" style="ellipse;whiteSpace=wrap;html=1;" vertex="1" parent="1">
          <mxGeometry x="287" y="486" width="160" height="70" as="geometry" />
        </mxCell>
        <mxCell id="MWKylUu2BTIcoXDb4IcX-14" value="" style="endArrow=classic;html=1;rounded=0;entryX=0.5;entryY=0;entryDx=0;entryDy=0;exitX=0.5;exitY=1;exitDx=0;exitDy=0;" edge="1" parent="1" source="MWKylUu2BTIcoXDb4IcX-10" target="MWKylUu2BTIcoXDb4IcX-13">
          <mxGeometry relative="1" as="geometry">
            <mxPoint x="370" y="470" as="sourcePoint" />
            <mxPoint x="580" y="536" as="targetPoint" />
          </mxGeometry>
        </mxCell>
        <mxCell id="MWKylUu2BTIcoXDb4IcX-15" value="extend" style="edgeLabel;resizable=0;html=1;;align=center;verticalAlign=middle;" connectable="0" vertex="1" parent="MWKylUu2BTIcoXDb4IcX-14">
          <mxGeometry relative="1" as="geometry">
            <mxPoint y="-5" as="offset" />
          </mxGeometry>
        </mxCell>
        <mxCell id="MWKylUu2BTIcoXDb4IcX-16" value="Iniciar Sesion" style="ellipse;whiteSpace=wrap;html=1;" vertex="1" parent="1">
          <mxGeometry x="285" y="203" width="160" height="70" as="geometry" />
        </mxCell>
        <mxCell id="MWKylUu2BTIcoXDb4IcX-17" value="" style="endArrow=none;html=1;rounded=0;exitX=1;exitY=0.5;exitDx=0;exitDy=0;" edge="1" parent="1" source="MWKylUu2BTIcoXDb4IcX-16" target="MWKylUu2BTIcoXDb4IcX-3">
          <mxGeometry width="50" height="50" relative="1" as="geometry">
            <mxPoint x="478" y="569" as="sourcePoint" />
            <mxPoint x="26" y="402" as="targetPoint" />
          </mxGeometry>
        </mxCell>
        <mxCell id="MWKylUu2BTIcoXDb4IcX-18" value="" style="endArrow=none;html=1;rounded=0;exitX=0;exitY=0.5;exitDx=0;exitDy=0;" edge="1" parent="1" source="MWKylUu2BTIcoXDb4IcX-16" target="MWKylUu2BTIcoXDb4IcX-1">
          <mxGeometry width="50" height="50" relative="1" as="geometry">
            <mxPoint x="-20" y="199" as="sourcePoint" />
            <mxPoint x="30" y="149" as="targetPoint" />
          </mxGeometry>
        </mxCell>
        <mxCell id="MWKylUu2BTIcoXDb4IcX-19" value="Visualizar los casos" style="ellipse;whiteSpace=wrap;html=1;" vertex="1" parent="1">
          <mxGeometry x="287" y="-152" width="160" height="70" as="geometry" />
        </mxCell>
        <mxCell id="MWKylUu2BTIcoXDb4IcX-20" value="" style="endArrow=none;html=1;rounded=0;entryX=0;entryY=0.5;entryDx=0;entryDy=0;" edge="1" parent="1" source="MWKylUu2BTIcoXDb4IcX-1" target="MWKylUu2BTIcoXDb4IcX-19">
          <mxGeometry width="50" height="50" relative="1" as="geometry">
            <mxPoint x="83" y="82" as="sourcePoint" />
            <mxPoint x="243" y="-72" as="targetPoint" />
          </mxGeometry>
        </mxCell>
        <mxCell id="MWKylUu2BTIcoXDb4IcX-21" value="Juez" style="shape=umlActor;verticalLabelPosition=bottom;verticalAlign=top;html=1;outlineConnect=0;" vertex="1" parent="1">
          <mxGeometry x="639" y="23" width="30" height="60" as="geometry" />
        </mxCell>
        <mxCell id="MWKylUu2BTIcoXDb4IcX-22" value="" style="endArrow=none;html=1;rounded=0;exitX=1;exitY=0.5;exitDx=0;exitDy=0;" edge="1" parent="1" source="MWKylUu2BTIcoXDb4IcX-19" target="MWKylUu2BTIcoXDb4IcX-21">
          <mxGeometry width="50" height="50" relative="1" as="geometry">
            <mxPoint x="529" y="182" as="sourcePoint" />
            <mxPoint x="579" y="132" as="targetPoint" />
          </mxGeometry>
        </mxCell>
        <mxCell id="MWKylUu2BTIcoXDb4IcX-23" value="" style="endArrow=none;html=1;rounded=0;exitX=1;exitY=0.5;exitDx=0;exitDy=0;" edge="1" parent="1" source="MWKylUu2BTIcoXDb4IcX-16" target="MWKylUu2BTIcoXDb4IcX-21">
          <mxGeometry width="50" height="50" relative="1" as="geometry">
            <mxPoint x="535" y="228" as="sourcePoint" />
            <mxPoint x="585" y="178" as="targetPoint" />
          </mxGeometry>
        </mxCell>
        <mxCell id="MWKylUu2BTIcoXDb4IcX-24" value="Aprobar Caso" style="ellipse;whiteSpace=wrap;html=1;" vertex="1" parent="1">
          <mxGeometry x="805" y="-103" width="160" height="70" as="geometry" />
        </mxCell>
        <mxCell id="MWKylUu2BTIcoXDb4IcX-25" value="" style="endArrow=none;html=1;rounded=0;entryX=0;entryY=0.5;entryDx=0;entryDy=0;" edge="1" parent="1" source="MWKylUu2BTIcoXDb4IcX-21" target="MWKylUu2BTIcoXDb4IcX-24">
          <mxGeometry width="50" height="50" relative="1" as="geometry">
            <mxPoint x="765" y="136" as="sourcePoint" />
            <mxPoint x="815" y="86" as="targetPoint" />
          </mxGeometry>
        </mxCell>
        <mxCell id="MWKylUu2BTIcoXDb4IcX-26" value="Aperturar Audiencia" style="ellipse;whiteSpace=wrap;html=1;" vertex="1" parent="1">
          <mxGeometry x="805" y="83" width="160" height="70" as="geometry" />
        </mxCell>
        <mxCell id="MWKylUu2BTIcoXDb4IcX-27" value="" style="endArrow=none;html=1;rounded=0;entryX=0;entryY=0.5;entryDx=0;entryDy=0;" edge="1" parent="1" source="MWKylUu2BTIcoXDb4IcX-21" target="MWKylUu2BTIcoXDb4IcX-26">
          <mxGeometry width="50" height="50" relative="1" as="geometry">
            <mxPoint x="680" y="200" as="sourcePoint" />
            <mxPoint x="730" y="150" as="targetPoint" />
          </mxGeometry>
        </mxCell>
        <mxCell id="MWKylUu2BTIcoXDb4IcX-28" value="Aperturar Sala" style="ellipse;whiteSpace=wrap;html=1;" vertex="1" parent="1">
          <mxGeometry x="1093" y="83" width="160" height="70" as="geometry" />
        </mxCell>
        <mxCell id="MWKylUu2BTIcoXDb4IcX-29" value="" style="endArrow=classic;html=1;rounded=0;entryX=0;entryY=0.5;entryDx=0;entryDy=0;exitX=1;exitY=0.5;exitDx=0;exitDy=0;" edge="1" parent="1" source="MWKylUu2BTIcoXDb4IcX-26" target="MWKylUu2BTIcoXDb4IcX-28">
          <mxGeometry relative="1" as="geometry">
            <mxPoint x="1043" y="166" as="sourcePoint" />
            <mxPoint x="1045" y="255" as="targetPoint" />
          </mxGeometry>
        </mxCell>
        <mxCell id="MWKylUu2BTIcoXDb4IcX-30" value="Includ" style="edgeLabel;resizable=0;html=1;;align=center;verticalAlign=middle;" connectable="0" vertex="1" parent="MWKylUu2BTIcoXDb4IcX-29">
          <mxGeometry relative="1" as="geometry">
            <mxPoint y="-5" as="offset" />
          </mxGeometry>
        </mxCell>
        <mxCell id="MWKylUu2BTIcoXDb4IcX-32" value="" style="endArrow=none;html=1;rounded=0;fontSize=12;startSize=8;endSize=8;curved=1;entryX=1;entryY=0.5;entryDx=0;entryDy=0;" edge="1" parent="1" source="MWKylUu2BTIcoXDb4IcX-3" target="MWKylUu2BTIcoXDb4IcX-4">
          <mxGeometry width="50" height="50" relative="1" as="geometry">
            <mxPoint x="642" y="257" as="sourcePoint" />
            <mxPoint x="688" y="194" as="targetPoint" />
          </mxGeometry>
        </mxCell>
        <mxCell id="MWKylUu2BTIcoXDb4IcX-33" value="Agregar abogados" style="ellipse;whiteSpace=wrap;html=1;" vertex="1" parent="1">
          <mxGeometry x="583" y="-178" width="160" height="70" as="geometry" />
        </mxCell>
        <mxCell id="MWKylUu2BTIcoXDb4IcX-34" value="" style="endArrow=none;html=1;rounded=0;fontSize=12;startSize=8;endSize=8;curved=1;entryX=0.5;entryY=1;entryDx=0;entryDy=0;" edge="1" parent="1" source="MWKylUu2BTIcoXDb4IcX-21" target="MWKylUu2BTIcoXDb4IcX-33">
          <mxGeometry width="50" height="50" relative="1" as="geometry">
            <mxPoint x="687" y="-18" as="sourcePoint" />
            <mxPoint x="699" y="-116" as="targetPoint" />
          </mxGeometry>
        </mxCell>
      </root>
    </mxGraphModel>
  </diagram>
</mxfile>
